<svg xmlns="http://www.w3.org/2000/svg" width="168.333" height="210.417" viewBox="0 0 168.333 210.417"><g transform="translate(-24 -38)"><g transform="translate(-4 38)"><path d="M164.771,168.333a3.508,3.508,0,0,0-3.507,3.507v7.014a3.507,3.507,0,1,0,7.014,0V171.84a3.508,3.508,0,0,0-3.507-3.507Zm3.507-38.576a3.507,3.507,0,1,0-7.014,0v28.056a3.507,3.507,0,0,0,7.014,0Zm21.042-38.576H35.014A7.021,7.021,0,0,0,28,98.194v14.028a7.021,7.021,0,0,0,7.014,7.014v73.646a17.555,17.555,0,0,0,17.535,17.535H171.785a17.555,17.555,0,0,0,17.535-17.535V129.757a3.507,3.507,0,1,0-7.014,0v63.125A10.534,10.534,0,0,1,171.785,203.4H52.549a10.534,10.534,0,0,1-10.521-10.521V115.729a3.508,3.508,0,0,0-3.507-3.507H35.014V98.194H189.319v14.028H52.549a3.507,3.507,0,1,0,0,7.014H189.319a7.021,7.021,0,0,0,7.014-7.014V98.194a7.021,7.021,0,0,0-7.014-7.014ZM105.153,57.745V80.66a3.507,3.507,0,1,0,7.014,0V56.111A3.53,3.53,0,0,0,110.76,53.3a13.924,13.924,0,0,1-5.608-11.219c0-8.823,8.49-23.791,14.028-32.323,5.537,8.532,14.028,23.5,14.028,32.323a14.054,14.054,0,0,1-11.254,13.754,3.506,3.506,0,0,0,1.371,6.877,21.079,21.079,0,0,0,16.9-20.631c0-14.978-17.447-39.576-18.187-40.614a3.637,3.637,0,0,0-5.709,0c-.74,1.038-18.187,25.636-18.187,40.614a20.862,20.862,0,0,0,7.014,15.662ZM38.521,84.167h7.014a3.507,3.507,0,1,0,0-7.014H42.028V70.139H59.562a3.507,3.507,0,1,0,0-7.014H42.028V56.111h3.507a3.507,3.507,0,0,0,0-7.014H42.028V42.083h3.507a3.507,3.507,0,0,0,0-7.014H42.028V28.056H59.562a3.507,3.507,0,1,0,0-7.014H42.028V7.014H84.111V80.66a3.507,3.507,0,1,0,7.014,0V3.507A3.508,3.508,0,0,0,87.618,0h-49.1a3.508,3.508,0,0,0-3.507,3.507V80.66a3.508,3.508,0,0,0,3.507,3.507ZM164.771,45.59V80.66a3.507,3.507,0,1,0,7.014,0V45.59a3.507,3.507,0,0,0-7.014,0Zm21.042-3.507a3.508,3.508,0,0,0-3.507,3.507V80.66a3.507,3.507,0,1,0,7.014,0V45.59a3.508,3.508,0,0,0-3.507-3.507ZM150.743,84.167a3.508,3.508,0,0,0,3.507-3.507V32.569l14.028-22.444,11.208,17.931H164.771a3.507,3.507,0,1,0,0,7.014h21.042a3.506,3.506,0,0,0,2.974-5.366L171.252,1.648a3.643,3.643,0,0,0-5.948,0L147.769,29.7a3.513,3.513,0,0,0-.533,1.859v49.1a3.508,3.508,0,0,0,3.507,3.507ZM133.208,70.139V80.66a3.507,3.507,0,1,1-7.014,0V70.139a3.507,3.507,0,1,1,7.014,0Z" fill="#0b6188" fill-rule="evenodd"/></g></g></svg>