<svg xmlns="http://www.w3.org/2000/svg" width="235.359" height="230.36" viewBox="0 0 235.359 230.36"><g transform="translate(0 -2.961)"><g transform="translate(0 52.904)"><path d="M117.672,242.793c-43.824,0-82.256-28.79-92.533-68.856a25.612,25.612,0,0,1,.478-51.22h2.2c13.372-36.2,49.151-60.341,89.866-60.341s76.494,24.141,89.866,60.341h2.2a25.612,25.612,0,0,1,.478,51.22C199.936,214,161.5,242.793,117.672,242.793ZM25.617,129.849a18.482,18.482,0,1,0,0,36.963h2.339a3.562,3.562,0,0,1,3.48,2.8c8.458,38.268,44.723,66.053,86.236,66.053s77.785-27.785,86.243-66.053a3.576,3.576,0,0,1,3.48-2.8h2.339a18.482,18.482,0,0,0,0-36.963h-4.721a3.566,3.566,0,0,1-3.38-2.432c-11.667-34.631-45.407-57.909-83.961-57.909s-72.3,23.278-83.961,57.909a3.56,3.56,0,0,1-3.38,2.432Z" transform="translate(0 -62.377)" fill="#0b6188"/><g transform="translate(138.939 91.1)"><circle cx="8.615" cy="8.615" r="8.615" fill="#0b6188"/></g><g transform="translate(82.463 91.1)"><circle cx="8.615" cy="8.615" r="8.615" fill="#0b6188"/></g><path d="M134.617,233.682a47.939,47.939,0,0,1-25.2-7.174l-1.4-.863a3.566,3.566,0,0,1,3.744-6.069l1.4.863a40.726,40.726,0,0,0,42.94-.007l1.391-.863a3.566,3.566,0,0,1,3.744,6.069l-1.4.863A48.075,48.075,0,0,1,134.617,233.682Z" transform="translate(-16.951 -87.355)" fill="#0b6188"/></g><path d="M143.337,60.5a31.6,31.6,0,0,1-31.565-31.565A26,26,0,0,1,137.739,2.961a21.515,21.515,0,0,1,21.488,21.488,17.924,17.924,0,0,1-17.908,17.908,15.048,15.048,0,0,1-15.026-15.034,3.566,3.566,0,0,1,7.132,0,7.909,7.909,0,0,0,7.895,7.9A10.79,10.79,0,0,0,152.1,24.449a14.377,14.377,0,0,0-14.356-14.356A18.86,18.86,0,0,0,118.9,28.935a24.462,24.462,0,0,0,24.433,24.433,3.566,3.566,0,1,1,0,7.132Z" transform="translate(-17.82 0)" fill="#0b6188"/></g></svg>