<svg xmlns="http://www.w3.org/2000/svg" xmlns:xlink="http://www.w3.org/1999/xlink" width="280" height="280" viewBox="0 0 280 280"><defs><clipPath id="a"><circle cx="140" cy="140" r="140" transform="translate(800 2265)" fill="#fff"/></clipPath></defs><g transform="translate(-800 -2265)" clip-path="url(#a)"><g transform="translate(800 2265)"><g transform="translate(21.205 31)"><path d="M133.618,133.609H103.927a4.948,4.948,0,1,0,0,9.9h29.691a4.948,4.948,0,1,0,0-9.9Zm14.845-19.794H89.082a4.948,4.948,0,0,0,0,9.9h59.382a4.948,4.948,0,0,0,0-9.9Zm39.588-64.33H163.309V44.536a44.536,44.536,0,0,0-89.073,0v4.948H49.494a4.947,4.947,0,0,0-4.948,4.948V202.888a14.845,14.845,0,0,0,14.845,14.845H178.155A14.848,14.848,0,0,0,193,202.888V54.433A4.944,4.944,0,0,0,188.052,49.485ZM84.133,44.536a34.639,34.639,0,0,1,69.279,0v4.948H84.133ZM183.1,202.888a4.944,4.944,0,0,1-4.948,4.949H59.391a4.947,4.947,0,0,1-4.948-4.949V59.382H74.236V74.227a4.948,4.948,0,1,0,9.9,0V59.382h69.279V74.227a4.948,4.948,0,0,0,9.9,0V59.382H183.1Z" fill="#0b6188"/></g></g></g></svg>