<svg xmlns="http://www.w3.org/2000/svg" xmlns:xlink="http://www.w3.org/1999/xlink" width="40" height="40" viewBox="0 0 40 40"><defs><clipPath id="a"><rect width="40" height="40" transform="translate(390 3432)" fill="#ccc"/></clipPath></defs><g transform="translate(-390 -3432)" clip-path="url(#a)"><g transform="translate(390 3432)"><rect width="40" height="40" rx="6" fill="#5ac4ff"/><path d="M34.141,11.875a5.625,5.625,0,0,1-3.125.938,5.625,5.625,0,0,0,2.5-3.125A5.625,5.625,0,0,1,30,11.016a5.625,5.625,0,0,0-9.531,5.078A15.625,15.625,0,0,1,9.141,10.313a5.625,5.625,0,0,0,1.719,7.344,5.625,5.625,0,0,1-2.5-.547A5.625,5.625,0,0,0,12.734,22.5a5.625,5.625,0,0,1-2.5.078,5.625,5.625,0,0,0,5.234,3.906,15.625,15.625,0,0,1-8.2,2.266A15.625,15.625,0,0,0,31.406,14.766a15.625,15.625,0,0,0,2.734-2.891"/></g></g></svg>