<svg xmlns="http://www.w3.org/2000/svg" xmlns:xlink="http://www.w3.org/1999/xlink" width="340" height="340" viewBox="0 0 340 340"><defs><clipPath id="a"><circle cx="170" cy="170" r="170" transform="translate(530 650)" fill="#ccc"/></clipPath></defs><g transform="translate(-530 -650)" clip-path="url(#a)"><g transform="translate(515.217 635.217)"><path d="M184.783,14.783h0v340h0a170,170,0,0,1,0-340Z" fill="#e755f0" fill-rule="evenodd"/><path d="M184.783,14.783h0v340h0a170,170,0,1,0,0-340Z" fill="#5ac4ff" fill-rule="evenodd"/><path d="M150.043,240.217c0-15.522,2.957-27.348,8.13-34.739s15.522-16.261,29.565-26.609a55.848,55.848,0,0,0,17.739-17c4.435-6.652,5.913-14.783,5.913-23.652,0-9.609-2.217-17-7.391-22.174-4.435-5.913-11.826-8.13-20.7-8.13-7.391,0-14.043,2.217-18.478,6.652-5.174,4.435-8.13,11.087-8.13,19.957H102v-.739c0-22.913,6.652-40.652,22.174-51.739C138.957,70.217,158.913,64.3,183.3,64.3c25.87,0,46.565,6.652,61.348,19.957,15.522,13.3,22.913,31.043,22.913,53.957A64.118,64.118,0,0,1,255,175.913a85.009,85.009,0,0,1-31.043,27.348c-7.391,4.435-11.826,9.609-14.043,14.783-2.957,5.913-3.7,12.565-3.7,22.174Zm55.435,68.739H150.043V263.87h55.435Z" fill="#f2f2f2" fill-rule="evenodd"/><path d="M184.783,64.3v43.609c8.13,0,14.783,2.957,19.217,8.13,5.174,5.174,7.391,12.565,7.391,22.174,0,8.87-1.478,17-5.913,23.652a55.848,55.848,0,0,1-17.739,17c-.739.739-2.217,1.478-2.957,2.217v59.13h21.435c0-9.609.739-16.261,3.7-22.174,2.217-5.174,6.652-10.348,14.043-14.783A85.009,85.009,0,0,0,255,175.913a64.118,64.118,0,0,0,12.565-37.7c0-22.913-7.391-40.652-22.913-53.957C230.609,71.7,209.913,65.043,184.783,64.3Zm0,199.565v45.087h20.7V263.87Z" fill="rgba(190,223,238,0.5)" fill-rule="evenodd"/></g></g></svg>